<mxfile host="app.diagrams.net" modified="2021-05-25T08:52:42.449Z" agent="5.0 (Windows NT 10.0; Win64; x64) AppleWebKit/537.36 (KHTML, like Gecko) Chrome/89.0.4389.114 Safari/537.36" etag="eUMOap1Q-IEaK_kCLjML" version="14.7.0" type="github">
  <diagram id="tTTIAzaL_ms0EDJ1PeCo" name="Page-1">
    <mxGraphModel dx="1422" dy="762" grid="1" gridSize="10" guides="1" tooltips="1" connect="1" arrows="1" fold="1" page="1" pageScale="1" pageWidth="827" pageHeight="1169" math="0" shadow="0">
      <root>
        <mxCell id="0" />
        <mxCell id="1" parent="0" />
        <mxCell id="55X-YXC8lKBZQD7_UkWY-1" value="账户映射服务API" style="rounded=0;whiteSpace=wrap;html=1;" vertex="1" parent="1">
          <mxGeometry x="490" y="100" width="120" height="220" as="geometry" />
        </mxCell>
        <mxCell id="55X-YXC8lKBZQD7_UkWY-4" value="" style="edgeStyle=orthogonalEdgeStyle;rounded=0;orthogonalLoop=1;jettySize=auto;html=1;exitX=1;exitY=0.25;exitDx=0;exitDy=0;entryX=0;entryY=0.25;entryDx=0;entryDy=0;" edge="1" parent="1" source="55X-YXC8lKBZQD7_UkWY-2" target="55X-YXC8lKBZQD7_UkWY-1">
          <mxGeometry relative="1" as="geometry">
            <mxPoint x="480" y="155" as="targetPoint" />
          </mxGeometry>
        </mxCell>
        <mxCell id="55X-YXC8lKBZQD7_UkWY-5" value="注册账户" style="edgeLabel;html=1;align=center;verticalAlign=middle;resizable=0;points=[];" vertex="1" connectable="0" parent="55X-YXC8lKBZQD7_UkWY-4">
          <mxGeometry x="0.1833" y="4" relative="1" as="geometry">
            <mxPoint as="offset" />
          </mxGeometry>
        </mxCell>
        <mxCell id="55X-YXC8lKBZQD7_UkWY-7" value="" style="edgeStyle=orthogonalEdgeStyle;rounded=0;orthogonalLoop=1;jettySize=auto;html=1;entryX=0;entryY=0.75;entryDx=0;entryDy=0;" edge="1" parent="1" target="55X-YXC8lKBZQD7_UkWY-1">
          <mxGeometry relative="1" as="geometry">
            <mxPoint x="254" y="265" as="sourcePoint" />
            <mxPoint x="350" y="210" as="targetPoint" />
          </mxGeometry>
        </mxCell>
        <mxCell id="55X-YXC8lKBZQD7_UkWY-8" value="交易签名" style="edgeLabel;html=1;align=center;verticalAlign=middle;resizable=0;points=[];" vertex="1" connectable="0" parent="55X-YXC8lKBZQD7_UkWY-7">
          <mxGeometry x="0.1271" y="1" relative="1" as="geometry">
            <mxPoint as="offset" />
          </mxGeometry>
        </mxCell>
        <mxCell id="55X-YXC8lKBZQD7_UkWY-2" value="应用（机构）" style="rounded=0;whiteSpace=wrap;html=1;" vertex="1" parent="1">
          <mxGeometry x="130" y="100" width="120" height="220" as="geometry" />
        </mxCell>
      </root>
    </mxGraphModel>
  </diagram>
</mxfile>
